<?xml version="1.0" standalone="no"?><!DOCTYPE svg PUBLIC "-//W3C//DTD SVG 1.1//EN" "http://www.w3.org/Graphics/SVG/1.1/DTD/svg11.dtd"><svg height="131" node-id="1" sillyvg="true" template-height="131" template-width="137" version="1.1" viewBox="0 0 137 131" width="137" xmlns="http://www.w3.org/2000/svg" xmlns:xlink="http://www.w3.org/1999/xlink"><defs node-id="69"></defs><g node-id="71"><g node-id="72"><path d="M 135.13 64.99 L 133.62 72.00 L 131.68 78.65 L 129.32 84.97 L 126.55 90.98 L 123.32 96.82 L 119.77 102.20 L 115.90 107.16 L 111.71 111.71 L 107.13 115.92 L 102.34 119.59 L 97.31 122.76 L 92.03 125.43 L 86.52 127.57 L 80.86 129.10 L 75.00 130.05 L 68.93 130.39 L 62.96 130.06 L 57.21 129.15 L 51.64 127.67 L 46.21 125.60 L 41.01 123.02 L 36.05 119.97 L 31.31 116.42 L 26.77 112.35 L 22.61 107.95 L 18.76 103.15 L 15.20 97.94 L 11.95 92.29 L 9.14 86.45 L 6.72 80.32 L 4.70 73.86 L 3.08 67.05 L 4.75 71.16 L 6.82 75.11 L 9.30 78.91 L 12.20 82.58 L 15.40 85.97 L 18.92 89.14 L 22.80 92.12 L 27.05 94.90 L 31.46 97.34 L 36.13 99.51 L 41.08 101.40 L 46.34 103.02 L 51.64 104.27 L 57.14 105.18 L 62.85 105.74 L 68.78 105.95 L 74.89 105.73 L 80.77 105.13 L 86.41 104.17 L 91.86 102.85 L 97.25 101.13 L 102.31 99.13 L 107.07 96.84 L 111.55 94.27 L 115.85 91.34 L 119.75 88.20 L 123.28 84.85 L 126.44 81.29 L 129.29 77.44 L 131.67 73.45 L 133.61 69.30 L 135.13 64.99" fill="#ffffff" fill-rule="evenodd" group-id="1,2" id="Fill-389" node-id="9" stroke="none" target-height="65.4" target-width="132.05" target-x="3.08" target-y="64.99"></path><path d="M 122.21 43.26 L 121.81 44.01 L 121.21 43.59 L 122.21 43.26" fill="#ffffff" fill-rule="evenodd" group-id="1,2" id="Fill-391" node-id="10" stroke="none" target-height="0.75" target-width="1" target-x="121.21" target-y="43.26"></path><path d="M 93.63 58.64 L 93.56 58.64 L 93.56 58.54 L 93.63 58.64" fill="#ffffff" fill-rule="evenodd" group-id="1,2" id="Fill-393" node-id="11" stroke="none" target-height="0.099998474" target-width="0.069999695" target-x="93.56" target-y="58.54"></path><path d="M 32.05 24.81 L 32.57 24.10 L 33.24 23.66 L 33.99 23.51 L 34.75 23.69 L 35.55 24.24 L 36.18 24.99 L 36.98 26.55 L 37.23 27.30 L 35.42 27.89 L 34.17 27.95 L 32.95 27.73 L 32.33 27.24 L 31.94 26.51 L 31.84 25.68 L 32.05 24.81" fill="#ffffff" fill-rule="evenodd" group-id="1,2" id="Fill-395" node-id="12" stroke="none" target-height="4.4400005" target-width="5.3899994" target-x="31.84" target-y="23.51"></path><path d="M 36.36 23.16 L 36.53 22.38 L 37.02 21.71 L 37.73 21.25 L 38.60 21.08 L 39.46 21.23 L 40.14 21.65 L 40.61 22.27 L 40.78 23.03 L 40.62 24.00 L 40.22 24.90 L 39.17 26.30 L 38.60 26.85 L 37.28 25.46 L 36.67 24.36 L 36.36 23.16" fill="#ffffff" fill-rule="evenodd" group-id="1,2" id="Fill-397" node-id="13" stroke="none" target-height="5.7700005" target-width="4.419998" target-x="36.36" target-y="21.08"></path><path d="M 42.41 30.14 L 42.72 30.87 L 42.72 31.70 L 42.42 32.49 L 41.83 33.15 L 41.04 33.52 L 40.24 33.59 L 39.49 33.36 L 38.91 32.85 L 38.47 31.97 L 38.27 31.01 L 38.30 29.26 L 38.43 28.48 L 40.31 28.82 L 41.44 29.35 L 42.41 30.14" fill="#ffffff" fill-rule="evenodd" group-id="1,2" id="Fill-399" node-id="14" stroke="none" target-height="5.1100006" target-width="4.450001" target-x="38.27" target-y="28.48"></path><path d="M 39.41 27.50 L 40.40 25.86 L 41.30 24.99 L 42.38 24.36 L 43.16 24.33 L 43.93 24.63 L 44.56 25.20 L 44.96 25.99 L 45.03 26.86 L 44.81 27.63 L 44.32 28.25 L 43.63 28.63 L 42.67 28.72 L 41.70 28.56 L 40.08 27.90 L 39.41 27.50" fill="#ffffff" fill-rule="evenodd" group-id="1,2" id="Fill-401" node-id="15" stroke="none" target-height="4.3899994" target-width="5.619999" target-x="39.41" target-y="24.33"></path><path d="M 20.33 31.54 L 18.47 32.26 L 16.73 33.17 L 18.26 30.67 L 20.01 28.25 L 20.08 29.92 L 20.33 31.54" fill="#ffffff" fill-rule="evenodd" group-id="1,2" id="Fill-403" node-id="16" stroke="none" target-height="4.919998" target-width="3.6000004" target-x="16.73" target-y="28.25"></path><path d="M 36.95 32.52 L 36.40 32.97 L 34.78 32.17 L 33.05 31.51 L 33.04 30.66 L 33.38 29.88 L 34.10 29.22 L 34.96 28.76 L 36.65 28.31 L 37.43 28.23 L 37.63 30.13 L 37.44 31.37 L 36.95 32.52" fill="#ffffff" fill-rule="evenodd" group-id="1,2" id="Fill-405" node-id="17" stroke="none" target-height="4.7400017" target-width="4.59" target-x="33.04" target-y="28.23"></path><path d="M 25.25 50.11 L 23.70 50.70 L 22.45 50.93 L 20.51 50.86 L 19.78 50.66 L 18.98 50.03 L 18.48 49.09 L 18.34 48.02 L 18.61 46.92 L 19.27 46.01 L 20.13 45.44 L 21.10 45.24 L 22.08 45.47 L 23.10 46.19 L 23.91 47.15 L 24.94 49.15 L 25.25 50.11" fill="#ffffff" fill-rule="evenodd" group-id="1,2" id="Fill-407" node-id="18" stroke="none" target-height="5.6899986" target-width="6.91" target-x="18.34" target-y="45.24"></path><path d="M 24.91 56.79 L 24.11 57.44 L 23.10 57.73 L 22.02 57.64 L 21.00 57.14 L 20.25 56.30 L 19.89 55.34 L 19.90 54.34 L 20.33 53.42 L 21.25 52.58 L 22.36 52.00 L 24.51 51.42 L 25.50 51.32 L 25.75 52.96 L 25.72 54.24 L 25.24 56.12 L 24.91 56.79" fill="#ffffff" fill-rule="evenodd" group-id="1,2" id="Fill-409" node-id="19" stroke="none" target-height="6.41" target-width="5.8600006" target-x="19.89" target-y="51.32"></path><path d="M 31.13 57.59 L 30.12 58.08 L 29.09 58.17 L 28.14 57.88 L 27.38 57.21 L 26.83 56.09 L 26.58 54.86 L 26.63 52.61 L 26.81 51.62 L 28.45 51.85 L 29.67 52.25 L 31.34 53.23 L 31.88 53.75 L 32.29 54.69 L 32.28 55.75 L 31.89 56.76 L 31.13 57.59" fill="#ffffff" fill-rule="evenodd" group-id="1,2" id="Fill-411" node-id="20" stroke="none" target-height="6.549999" target-width="5.710001" target-x="26.58" target-y="51.62"></path><path d="M 33.46 51.82 L 32.21 51.94 L 30.98 51.73 L 28.92 50.88 L 28.06 50.36 L 28.85 48.89 L 29.65 47.90 L 31.16 46.69 L 31.83 46.37 L 32.86 46.32 L 33.84 46.69 L 34.64 47.41 L 35.16 48.43 L 35.25 49.56 L 34.96 50.55 L 34.35 51.34 L 33.46 51.82" fill="#ffffff" fill-rule="evenodd" group-id="1,2" id="Fill-413" node-id="21" stroke="none" target-height="5.619999" target-width="7.1900005" target-x="28.06" target-y="46.32"></path><path d="M 86.85 9.03 L 83.18 10.92 L 79.28 13.46 L 75.52 16.30 L 72.10 19.16 L 66.73 24.26 L 64.75 26.75 L 60.09 26.71 L 56.55 27.02 L 56.24 24.58 L 55.63 22.29 L 54.74 20.13 L 53.58 18.09 L 52.20 16.25 L 50.58 14.59 L 48.78 13.14 L 46.80 11.94 L 44.65 10.99 L 50.30 9.21 L 56.30 7.89 L 62.47 7.08 L 68.93 6.80 L 75.18 7.06 L 81.14 7.81 L 86.85 9.03" fill="#ffffff" fill-rule="evenodd" group-id="1,2" id="Fill-415" node-id="22" stroke="none" target-height="20.220001" target-width="42.199997" target-x="44.65" target-y="6.8"></path><path d="M 32.68 77.46 L 32.37 78.18 L 31.65 78.49 L 30.93 78.18 L 30.63 77.46 L 30.93 76.73 L 31.65 76.43 L 32.37 76.73 L 32.68 77.46" fill="#ffffff" fill-rule="evenodd" group-id="1,2" id="Fill-417" node-id="23" stroke="none" target-height="2.0599976" target-width="2.0500011" target-x="30.63" target-y="76.43"></path><path d="M 44.43 81.55 L 44.20 82.66 L 43.60 83.55 L 42.71 84.16 L 41.60 84.39 L 40.50 84.16 L 39.61 83.55 L 39.01 82.66 L 38.78 81.55 L 39.01 80.45 L 39.61 79.55 L 40.50 78.94 L 41.60 78.72 L 42.71 78.94 L 43.60 79.55 L 44.20 80.45 L 44.43 81.55" fill="#ffe063" fill-rule="evenodd" group-id="1,2" id="Fill-419" node-id="24" stroke="none" target-height="5.669998" target-width="5.6500015" target-x="38.78" target-y="78.72"></path><path d="M 46.16 71.32 L 45.92 72.49 L 45.29 73.43 L 44.35 74.06 L 43.18 74.30 L 42.01 74.06 L 41.07 73.43 L 40.44 72.49 L 40.21 71.32 L 40.44 70.14 L 41.07 69.20 L 42.01 68.57 L 43.18 68.33 L 44.35 68.57 L 45.29 69.20 L 45.92 70.14 L 46.16 71.32" fill="#ebbe1b" fill-rule="evenodd" group-id="1,2" id="Fill-421" node-id="25" stroke="none" target-height="5.970001" target-width="5.950001" target-x="40.21" target-y="68.33"></path><path d="M 55.33 81.20 L 55.16 82.04 L 54.70 82.72 L 54.02 83.19 L 53.18 83.36 L 52.33 83.19 L 51.64 82.72 L 51.18 82.04 L 51.01 81.20 L 51.18 80.35 L 51.64 79.67 L 52.33 79.22 L 53.18 79.04 L 54.02 79.21 L 54.70 79.67 L 55.16 80.35 L 55.33 81.20" fill="#ffe063" fill-rule="evenodd" group-id="1,2" id="Fill-423" node-id="26" stroke="none" target-height="4.3199997" target-width="4.3200035" target-x="51.01" target-y="79.04"></path><path d="M 66.46 88.08 L 66.22 89.25 L 65.59 90.19 L 64.65 90.83 L 63.48 91.06 L 62.31 90.83 L 61.37 90.19 L 60.74 89.25 L 60.50 88.08 L 60.74 86.90 L 61.37 85.96 L 62.31 85.33 L 63.48 85.09 L 64.65 85.33 L 65.59 85.96 L 66.22 86.90 L 66.46 88.08" fill="#ebbe1b" fill-rule="evenodd" group-id="1,2" id="Fill-425" node-id="27" stroke="none" target-height="5.970001" target-width="5.959999" target-x="60.5" target-y="85.09"></path><path d="M 77.38 88.13 L 76.46 88.76 L 75.33 88.98 L 74.16 88.74 L 73.22 88.11 L 72.59 87.17 L 72.35 85.99 L 72.55 84.92 L 73.09 84.02 L 73.89 83.37 L 74.91 83.03 L 75.18 84.11 L 76.10 86.25 L 77.38 88.13" fill="#ffe063" fill-rule="evenodd" group-id="1,2" id="Fill-427" node-id="28" stroke="none" target-height="5.9500046" target-width="5.029999" target-x="72.35" target-y="83.03"></path><path d="M 84.68 56.63 L 84.35 56.51 L 84.55 56.48 L 84.68 56.63" fill="#ffffff" fill-rule="evenodd" group-id="1,2" id="Fill-429" node-id="29" stroke="none" target-height="0.15000153" target-width="0.33000183" target-x="84.35" target-y="56.48"></path><path d="M 112.33 22.36 L 102.76 22.52 L 99.63 22.79 L 96.82 23.30 L 94.28 24.04 L 92.53 24.84 L 94.88 20.91 L 96.13 19.11 L 97.28 17.71 L 98.80 15.74 L 99.81 13.87 L 104.40 16.41 L 108.56 19.23 L 112.33 22.36" fill="#ffffff" fill-rule="evenodd" group-id="1,2" id="Fill-431" node-id="30" stroke="none" target-height="10.97" target-width="19.800003" target-x="92.53" target-y="13.87"></path><path d="M 136.83 53.37 L 136.64 57.34 L 136.07 61.21 L 135.13 64.99 L 136.19 57.53 L 136.65 49.76 L 136.83 53.37" fill="#ffffff" fill-rule="evenodd" group-id="1,2" id="Fill-433" node-id="31" stroke="none" target-height="15.23" target-width="1.699997" target-x="135.13" target-y="49.76"></path><path d="M 135.13 64.99 L 133.62 72.00 L 131.68 78.65 L 129.32 84.97 L 126.55 90.98 L 123.32 96.82 L 119.77 102.20 L 115.90 107.16 L 111.71 111.71 L 107.13 115.92 L 102.34 119.59 L 97.31 122.76 L 92.03 125.43 L 86.52 127.57 L 80.86 129.10 L 75.00 130.05 L 68.93 130.39 L 62.96 130.06 L 57.21 129.15 L 51.64 127.67 L 46.21 125.60 L 41.01 123.02 L 36.05 119.97 L 31.31 116.42 L 26.77 112.35 L 22.61 107.95 L 18.76 103.15 L 15.20 97.94 L 11.95 92.29 L 9.14 86.45 L 6.72 80.32 L 4.70 73.86 L 3.08 67.05 L 4.75 71.16 L 6.82 75.11 L 9.30 78.91 L 12.20 82.58 L 15.40 85.97 L 18.92 89.14 L 22.80 92.12 L 27.05 94.90 L 31.46 97.34 L 36.13 99.51 L 41.08 101.40 L 46.34 103.02 L 51.64 104.27 L 57.14 105.18 L 62.85 105.74 L 68.78 105.95 L 74.89 105.73 L 80.77 105.13 L 86.41 104.17 L 91.86 102.85 L 97.25 101.13 L 102.31 99.13 L 107.07 96.84 L 111.55 94.27 L 115.85 91.34 L 119.75 88.20 L 123.28 84.85 L 126.44 81.29 L 129.29 77.44 L 131.67 73.45 L 133.61 69.30 L 135.13 64.99" fill="#b6d3ff" fill-rule="evenodd" group-id="1,2" id="Fill-435" node-id="32" stroke="none" target-height="65.4" target-width="132.05" target-x="3.08" target-y="64.99"></path><path d="M 136.65 49.76 L 136.19 57.53 L 135.13 64.99 L 133.62 69.30 L 131.67 73.45 L 129.29 77.44 L 126.44 81.29 L 123.28 84.85 L 119.75 88.20 L 115.85 91.33 L 111.55 94.27 L 107.07 96.84 L 102.31 99.13 L 97.25 101.13 L 91.86 102.85 L 86.41 104.17 L 80.77 105.13 L 74.89 105.73 L 68.78 105.94 L 62.85 105.74 L 57.14 105.18 L 51.65 104.27 L 46.34 103.02 L 41.08 101.40 L 36.13 99.51 L 31.46 97.34 L 27.05 94.90 L 22.80 92.12 L 18.92 89.14 L 15.40 85.96 L 12.20 82.58 L 9.30 78.91 L 6.82 75.11 L 4.75 71.16 L 3.08 67.05 L 1.78 62.63 L 1.00 58.08 L 0.73 53.37 L 0.83 50.47 L 1.13 47.63 L 2.13 42.75 L 3.66 38.08 L 5.72 33.57 L 8.34 29.20 L 11.38 25.14 L 14.85 21.32 L 18.79 17.72 L 23.21 14.34 L 27.85 11.37 L 32.84 8.73 L 38.20 6.41 L 43.95 4.41 L 49.77 2.87 L 55.83 1.75 L 62.16 1.05 L 68.78 0.80 L 74.73 1.00 L 80.46 1.57 L 85.99 2.50 L 91.44 3.80 L 96.63 5.41 L 101.58 7.32 L 101.60 7.32 L 107.64 10.22 L 113.17 13.53 L 116.65 16.02 L 119.87 18.66 L 122.83 21.45 L 120.48 21.89 L 117.86 22.16 L 112.33 22.36 L 108.56 19.23 L 104.40 16.41 L 99.81 13.87 L 100.55 11.67 L 100.68 9.98 L 100.37 9.00 L 100.01 8.59 L 99.51 8.35 L 99.45 8.30 L 98.47 7.71 L 97.47 7.42 L 95.64 7.23 L 93.49 7.32 L 90.21 7.88 L 88.62 8.33 L 86.85 9.03 L 81.14 7.81 L 75.17 7.06 L 68.93 6.80 L 62.47 7.08 L 56.30 7.89 L 50.30 9.21 L 44.65 10.99 L 41.61 10.13 L 38.30 9.83 L 34.97 10.15 L 31.91 10.99 L 29.07 12.35 L 26.50 14.18 L 24.33 16.37 L 22.51 18.95 L 21.15 21.80 L 20.32 24.88 L 20.01 28.23 L 20.01 28.25 L 18.26 30.67 L 16.73 33.17 L 13.86 35.16 L 11.43 37.57 L 9.40 40.41 L 7.89 43.56 L 6.95 46.97 L 6.60 50.69 L 6.84 53.74 L 7.48 56.60 L 8.52 59.29 L 9.93 61.80 L 11.65 64.05 L 13.68 66.04 L 16.03 67.78 L 18.37 71.70 L 21.16 75.39 L 24.42 78.88 L 28.18 82.17 L 32.19 85.06 L 36.56 87.65 L 41.30 89.92 L 46.45 91.89 L 51.68 93.40 L 57.15 94.51 L 62.90 95.20 L 68.93 95.46 L 75.25 95.18 L 81.26 94.41 L 87.01 93.17 L 89.61 93.33 L 92.31 93.09 L 95.13 92.42 L 97.58 91.47 L 99.88 90.16 L 102.78 90.45 L 104.50 90.40 L 106.36 90.14 L 107.71 89.66 L 109.85 88.55 L 112.11 87.15 L 114.72 85.31 L 117.32 83.29 L 119.87 81.09 L 122.26 78.78 L 124.21 76.57 L 125.80 74.30 L 126.65 72.42 L 127.28 69.43 L 127.35 66.72 L 126.91 64.24 L 126.14 61.86 L 124.98 59.55 L 125.74 55.40 L 126.00 51.11 L 125.93 48.93 L 125.45 44.99 L 124.57 41.18 L 123.27 37.49 L 121.55 33.90 L 123.13 31.58 L 124.38 29.36 L 125.43 27.14 L 126.20 25.17 L 129.00 28.89 L 131.38 32.76 L 133.36 36.78 L 134.92 40.98 L 136.02 45.30 L 136.65 49.76" fill="#e4eef6" fill-rule="evenodd" group-id="1,2" id="Fill-437" node-id="33" stroke="none" target-height="105.14" target-width="135.92" target-x="0.73" target-y="0.8"></path><path d="M 104.48 85.79 L 102.45 88.14 L 99.88 90.16 L 97.58 91.47 L 95.13 92.42 L 92.31 93.09 L 89.61 93.33 L 87.01 93.17 L 84.15 92.55 L 81.57 91.50 L 79.27 90.00 L 77.38 88.13 L 76.10 86.25 L 75.18 84.11 L 74.91 83.03 L 75.05 83.03 L 75.11 83.11 L 75.81 84.54 L 76.81 85.80 L 78.16 86.90 L 80.11 87.95 L 82.41 88.70 L 85.13 89.12 L 87.89 89.15 L 90.82 88.80 L 93.96 88.03 L 93.98 88.03 L 97.51 86.60 L 100.33 84.94 L 102.62 83.11 L 104.43 81.13 L 105.84 78.87 L 106.60 76.69 L 106.78 74.53 L 107.16 76.49 L 107.22 78.42 L 106.96 80.35 L 106.04 83.14 L 104.48 85.79" fill="#d83227" fill-rule="evenodd" group-id="1,2" id="Fill-439" node-id="34" stroke="none" target-height="18.800003" target-width="32.309998" target-x="74.91" target-y="74.53"></path><path d="M 20.33 31.54 L 18.47 32.26 L 16.73 33.17 L 18.26 30.67 L 20.01 28.25 L 20.08 29.92 L 20.33 31.54" fill="#ffffff" fill-rule="evenodd" group-id="1,2" id="Fill-441" node-id="35" stroke="none" target-height="4.919998" target-width="3.6000004" target-x="16.73" target-y="28.25"></path><path d="M 84.35 56.51 L 82.41 56.96 L 80.51 57.74 L 78.83 58.75 L 77.34 59.99 L 75.49 62.22 L 74.16 64.80 L 73.41 67.62 L 73.28 70.61 L 71.15 70.52 L 68.44 70.09 L 65.76 69.22 L 63.16 67.70 L 60.60 65.95 L 58.33 64.78 L 56.29 64.11 L 54.16 63.76 L 51.99 63.73 L 49.75 64.01 L 47.64 64.25 L 45.52 64.28 L 41.80 64.01 L 43.90 61.15 L 45.49 57.92 L 46.22 55.63 L 46.67 53.22 L 46.83 50.69 L 46.61 47.72 L 45.98 44.92 L 48.75 43.33 L 51.16 41.33 L 53.23 38.89 L 54.41 39.58 L 55.50 40.72 L 55.92 41.67 L 56.01 42.61 L 55.80 44.63 L 55.77 45.68 L 55.98 46.80 L 56.60 47.78 L 57.41 48.48 L 58.39 49.06 L 60.23 49.81 L 61.08 50.06 L 62.48 49.88 L 66.60 49.86 L 69.23 50.24 L 71.15 50.86 L 73.03 51.74 L 74.75 52.59 L 77.39 53.75 L 80.87 55.15 L 84.35 56.51" fill="#409d4d" fill-rule="evenodd" group-id="1,2" id="Fill-443" node-id="36" stroke="none" target-height="31.720001" target-width="42.55" target-x="41.8" target-y="38.89"></path><path d="M 56.63 28.23 L 56.40 31.16 L 55.74 33.92 L 54.67 36.52 L 53.23 38.89 L 51.16 41.33 L 48.75 43.33 L 45.98 44.92 L 45.40 43.19 L 44.65 41.55 L 47.02 40.14 L 49.03 38.37 L 50.72 36.22 L 51.98 33.79 L 52.76 31.15 L 53.05 28.23 L 52.81 25.59 L 52.17 23.17 L 51.12 20.92 L 49.71 18.87 L 48.02 17.12 L 46.03 15.65 L 43.82 14.53 L 41.43 13.80 L 38.83 13.47 L 38.30 13.45 L 36.18 13.60 L 34.18 14.03 L 32.29 14.73 L 29.69 16.24 L 27.47 18.23 L 25.69 20.63 L 24.40 23.38 L 23.79 25.71 L 23.58 28.23 L 23.80 30.69 L 20.33 31.54 L 20.09 29.92 L 20.01 28.25 L 20.01 28.23 L 20.32 24.88 L 21.15 21.80 L 22.51 18.95 L 24.33 16.37 L 26.50 14.18 L 29.07 12.35 L 31.91 10.99 L 34.97 10.15 L 38.30 9.83 L 41.61 10.13 L 44.65 10.99 L 46.80 11.94 L 48.78 13.14 L 50.58 14.59 L 52.20 16.25 L 53.58 18.09 L 54.74 20.13 L 55.63 22.29 L 56.24 24.58 L 56.55 27.02 L 56.63 28.23" fill="#2c7e45" fill-rule="evenodd" group-id="1,2" id="Fill-445" node-id="37" stroke="none" target-height="35.089996" target-width="36.620003" target-x="20.01" target-y="9.83"></path><path d="M 43.63 28.63 L 42.67 28.72 L 41.70 28.56 L 40.08 27.90 L 39.41 27.50 L 40.40 25.86 L 41.30 24.99 L 42.38 24.36 L 43.16 24.33 L 43.93 24.63 L 44.55 25.20 L 44.95 25.99 L 45.03 26.86 L 44.81 27.63 L 44.33 28.25 L 43.63 28.63 M 41.83 33.15 L 41.04 33.52 L 40.24 33.59 L 39.49 33.36 L 38.90 32.85 L 38.47 31.97 L 38.27 31.01 L 38.30 29.26 L 38.43 28.48 L 40.31 28.82 L 41.44 29.35 L 42.41 30.14 L 42.72 30.87 L 42.72 31.70 L 42.42 32.49 L 41.83 33.15 M 36.36 23.16 L 36.53 22.38 L 37.02 21.71 L 37.73 21.25 L 38.60 21.08 L 39.46 21.23 L 40.14 21.65 L 40.61 22.27 L 40.78 23.03 L 40.62 24.00 L 40.22 24.90 L 39.17 26.30 L 38.60 26.85 L 37.28 25.46 L 36.67 24.36 L 36.36 23.16 M 32.95 27.73 L 32.33 27.24 L 31.94 26.52 L 31.84 25.68 L 32.05 24.82 L 32.57 24.10 L 33.24 23.66 L 33.99 23.51 L 34.75 23.69 L 35.55 24.24 L 36.18 24.99 L 36.98 26.55 L 37.23 27.30 L 35.42 27.89 L 34.17 27.95 L 32.95 27.73 M 38.83 13.47 L 38.30 13.45 L 36.18 13.60 L 34.18 14.03 L 32.29 14.74 L 29.69 16.24 L 27.47 18.23 L 25.69 20.63 L 24.41 23.38 L 23.79 25.71 L 23.58 28.23 L 23.80 30.69 L 26.73 30.49 L 30.00 30.75 L 33.06 31.52 L 33.04 30.66 L 33.38 29.88 L 34.10 29.22 L 34.96 28.76 L 36.65 28.31 L 37.43 28.23 L 37.63 30.13 L 37.44 31.37 L 36.95 32.52 L 36.40 32.97 L 38.93 34.63 L 41.17 36.64 L 43.09 38.96 L 44.65 41.55 L 47.02 40.14 L 49.03 38.37 L 50.72 36.22 L 51.98 33.79 L 52.76 31.15 L 53.06 28.23 L 52.82 25.59 L 52.17 23.17 L 51.12 20.92 L 49.71 18.87 L 48.02 17.12 L 46.03 15.65 L 43.82 14.53 L 41.43 13.80 L 38.83 13.47" fill="#dbefc0" fill-rule="evenodd" group-id="1,2" id="Fill-447" node-id="38" stroke="none" target-height="28.099998" target-width="29.480001" target-x="23.58" target-y="13.45"></path><path d="M 37.13 63.11 L 34.88 64.71 L 32.36 65.91 L 29.65 66.66 L 26.73 66.92 L 24.47 66.76 L 22.34 66.32 L 20.32 65.60 L 17.53 64.04 L 15.13 61.98 L 13.78 60.43 L 12.68 58.72 L 12.68 58.69 L 11.52 56.23 L 10.81 53.58 L 10.55 50.69 L 10.85 47.58 L 11.66 44.77 L 12.98 42.18 L 12.98 42.16 L 14.62 39.93 L 16.61 38.02 L 18.90 36.48 L 21.45 35.36 L 23.19 34.84 L 25.00 34.55 L 25.00 34.53 L 26.73 34.45 L 29.73 34.74 L 32.47 35.51 L 35.02 36.75 L 37.31 38.43 L 39.24 40.43 L 40.83 42.78 L 41.63 44.43 L 42.23 46.20 L 42.71 48.38 L 42.88 50.69 L 42.69 53.16 L 42.17 55.47 L 41.33 57.64 L 40.18 59.68 L 38.78 61.49 L 37.13 63.11 M 45.98 44.92 L 45.40 43.20 L 44.66 41.55 L 43.09 38.96 L 41.17 36.64 L 38.93 34.63 L 36.41 32.97 L 34.78 32.17 L 33.05 31.52 L 30.00 30.75 L 26.73 30.49 L 23.80 30.69 L 20.33 31.54 L 18.47 32.26 L 16.73 33.17 L 13.86 35.17 L 11.43 37.57 L 9.40 40.41 L 7.89 43.56 L 6.95 46.97 L 6.61 50.69 L 6.84 53.74 L 7.48 56.60 L 8.52 59.29 L 9.94 61.81 L 11.65 64.05 L 13.68 66.05 L 16.03 67.78 L 18.45 69.10 L 21.07 70.08 L 23.82 70.68 L 26.73 70.89 L 29.72 70.66 L 32.52 70.04 L 35.16 69.03 L 37.63 67.66 L 39.83 65.99 L 41.80 64.01 L 43.90 61.15 L 45.49 57.92 L 46.22 55.63 L 46.67 53.22 L 46.83 50.69 L 46.61 47.72 L 45.98 44.92" fill="#2c7e45" fill-rule="evenodd" group-id="1,2" id="Fill-449" node-id="39" stroke="none" target-height="40.4" target-width="40.22" target-x="6.61" target-y="30.49"></path><path d="M 33.46 51.82 L 32.21 51.94 L 30.98 51.73 L 28.92 50.88 L 28.06 50.36 L 28.85 48.89 L 29.65 47.90 L 31.16 46.69 L 31.83 46.37 L 32.86 46.32 L 33.84 46.69 L 34.64 47.41 L 35.16 48.43 L 35.25 49.56 L 34.96 50.55 L 34.35 51.34 L 33.46 51.82 M 31.13 57.59 L 30.12 58.08 L 29.09 58.17 L 28.14 57.88 L 27.38 57.21 L 26.82 56.09 L 26.57 54.86 L 26.63 52.62 L 26.81 51.62 L 28.45 51.85 L 29.66 52.25 L 31.34 53.24 L 31.88 53.75 L 32.29 54.69 L 32.28 55.75 L 31.89 56.76 L 31.13 57.59 M 24.13 44.79 L 24.31 43.92 L 24.80 43.14 L 25.53 42.54 L 26.43 42.18 L 27.01 42.13 L 28.06 42.32 L 28.92 42.81 L 29.52 43.56 L 29.78 44.49 L 29.81 44.67 L 29.60 45.90 L 29.08 47.04 L 27.73 48.83 L 27.01 49.53 L 25.80 48.37 L 25.05 47.32 L 24.27 45.53 L 24.13 44.79 M 24.91 56.79 L 24.11 57.44 L 23.10 57.73 L 22.02 57.64 L 21.01 57.14 L 20.25 56.30 L 19.89 55.34 L 19.90 54.34 L 20.33 53.42 L 21.25 52.58 L 22.36 52.00 L 24.51 51.42 L 25.50 51.32 L 25.75 52.96 L 25.71 54.24 L 25.24 56.12 L 24.91 56.79 M 18.61 46.92 L 19.27 46.01 L 20.13 45.44 L 21.10 45.24 L 22.08 45.47 L 23.10 46.19 L 23.91 47.15 L 24.94 49.15 L 25.26 50.11 L 23.70 50.70 L 22.45 50.93 L 20.50 50.86 L 19.78 50.66 L 18.98 50.03 L 18.48 49.09 L 18.34 48.02 L 18.61 46.92 M 42.23 46.20 L 41.63 44.43 L 40.83 42.78 L 39.24 40.43 L 37.31 38.43 L 35.02 36.75 L 32.47 35.51 L 29.73 34.74 L 26.73 34.45 L 25.01 34.53 L 25.01 34.55 L 23.19 34.84 L 21.46 35.36 L 18.90 36.48 L 16.61 38.02 L 14.62 39.93 L 12.98 42.16 L 12.98 42.18 L 11.66 44.77 L 10.85 47.58 L 10.56 50.69 L 10.81 53.58 L 11.52 56.23 L 12.68 58.69 L 12.68 58.72 L 13.78 60.43 L 15.13 61.98 L 17.53 64.04 L 20.32 65.60 L 22.34 66.32 L 24.47 66.76 L 26.73 66.92 L 29.65 66.66 L 32.36 65.91 L 34.89 64.71 L 37.13 63.11 L 38.78 61.49 L 40.18 59.68 L 41.33 57.64 L 42.17 55.47 L 42.69 53.16 L 42.88 50.69 L 42.71 48.38 L 42.23 46.20" fill="#dbefc0" fill-rule="evenodd" group-id="1,2" id="Fill-451" node-id="40" stroke="none" target-height="32.469997" target-width="32.32" target-x="10.56" target-y="34.45"></path><path d="M 29.81 44.66 L 29.60 45.90 L 29.08 47.04 L 27.73 48.83 L 27.01 49.53 L 25.80 48.37 L 25.05 47.32 L 24.27 45.53 L 24.13 44.79 L 24.31 43.92 L 24.80 43.14 L 25.53 42.54 L 26.43 42.18 L 27.01 42.13 L 28.06 42.32 L 28.92 42.81 L 29.52 43.56 L 29.78 44.49 L 29.81 44.66" fill="#ffffff" fill-rule="evenodd" group-id="1,2" id="Fill-453" node-id="41" stroke="none" target-height="7.3999977" target-width="5.6800003" target-x="24.13" target-y="42.13"></path><path d="M 33.46 51.82 L 32.21 51.94 L 30.98 51.73 L 28.92 50.88 L 28.06 50.36 L 28.85 48.89 L 29.65 47.90 L 31.16 46.69 L 31.83 46.37 L 32.86 46.32 L 33.84 46.69 L 34.64 47.41 L 35.16 48.43 L 35.25 49.56 L 34.96 50.55 L 34.35 51.34 L 33.46 51.82" fill="#ffffff" fill-rule="evenodd" group-id="1,2" id="Fill-455" node-id="42" stroke="none" target-height="5.619999" target-width="7.1900005" target-x="28.06" target-y="46.32"></path><path d="M 31.13 57.59 L 30.12 58.08 L 29.09 58.17 L 28.14 57.88 L 27.38 57.21 L 26.83 56.09 L 26.58 54.86 L 26.63 52.61 L 26.81 51.62 L 28.45 51.85 L 29.67 52.25 L 31.34 53.23 L 31.88 53.75 L 32.29 54.69 L 32.28 55.75 L 31.89 56.76 L 31.13 57.59" fill="#ffffff" fill-rule="evenodd" group-id="1,2" id="Fill-457" node-id="43" stroke="none" target-height="6.549999" target-width="5.710001" target-x="26.58" target-y="51.62"></path><path d="M 24.91 56.79 L 24.11 57.44 L 23.10 57.73 L 22.02 57.64 L 21.00 57.14 L 20.25 56.30 L 19.89 55.34 L 19.90 54.34 L 20.33 53.42 L 21.25 52.58 L 22.36 52.00 L 24.51 51.42 L 25.50 51.32 L 25.75 52.96 L 25.72 54.24 L 25.24 56.12 L 24.91 56.79" fill="#ffffff" fill-rule="evenodd" group-id="1,2" id="Fill-459" node-id="44" stroke="none" target-height="6.41" target-width="5.8600006" target-x="19.89" target-y="51.32"></path><path d="M 25.25 50.11 L 23.70 50.70 L 22.45 50.93 L 20.51 50.86 L 19.78 50.66 L 18.98 50.03 L 18.48 49.09 L 18.34 48.02 L 18.61 46.92 L 19.27 46.01 L 20.13 45.44 L 21.10 45.24 L 22.08 45.47 L 23.10 46.19 L 23.91 47.15 L 24.94 49.15 L 25.25 50.11" fill="#ffffff" fill-rule="evenodd" group-id="1,2" id="Fill-461" node-id="45" stroke="none" target-height="5.6899986" target-width="6.91" target-x="18.34" target-y="45.24"></path><path d="M 95.93 66.45 L 95.28 66.42 L 92.82 66.50 L 90.23 66.88 L 87.51 67.58 L 84.78 68.61 L 82.36 69.87 L 80.16 71.37 L 78.33 73.00 L 76.59 75.07 L 75.40 77.19 L 75.21 76.86 L 74.46 75.46 L 73.88 73.92 L 73.48 72.26 L 73.28 70.61 L 73.41 67.62 L 74.16 64.80 L 75.49 62.22 L 77.34 59.99 L 78.83 58.75 L 80.51 57.74 L 82.41 56.96 L 84.35 56.51 L 84.68 56.63 L 84.55 56.48 L 84.91 56.43 L 87.21 56.38 L 89.44 56.73 L 91.57 57.46 L 93.56 58.54 L 93.56 58.64 L 93.83 60.93 L 94.39 63.08 L 95.23 65.12 L 95.48 65.64 L 95.93 66.45" fill="#bc202d" fill-rule="evenodd" group-id="1,2" id="Fill-463" node-id="46" stroke="none" target-height="20.810001" target-width="22.650002" target-x="73.28" target-y="56.38"></path><path d="M 126.00 51.11 L 125.74 55.40 L 124.98 59.55 L 123.13 56.61 L 120.07 52.73 L 117.33 49.81 L 118.96 48.03 L 120.19 46.48 L 121.80 44.01 L 122.20 43.26 L 121.20 43.59 L 118.68 44.05 L 114.05 44.46 L 109.26 44.45 L 106.78 44.14 L 109.73 43.13 L 112.33 41.93 L 114.60 40.55 L 117.37 38.44 L 119.67 36.23 L 121.55 33.90 L 123.27 37.49 L 124.57 41.18 L 125.45 44.99 L 125.93 48.93 L 126.00 51.11" fill="#fffcfe" fill-rule="evenodd" group-id="1,2" id="Fill-465" node-id="47" stroke="none" target-height="25.649998" target-width="19.220001" target-x="106.78" target-y="33.9"></path><path d="M 92.28 82.21 L 91.70 83.68 L 90.80 84.97 L 89.80 85.93 L 88.59 86.67 L 87.24 87.13 L 85.76 87.30 L 84.01 87.06 L 82.49 86.45 L 81.16 85.47 L 80.09 84.19 L 79.38 82.72 L 79.03 81.00 L 79.00 80.52 L 79.15 79.12 L 79.56 77.82 L 80.22 76.64 L 81.08 75.63 L 82.43 74.62 L 83.97 73.99 L 85.76 73.75 L 87.57 74.01 L 89.14 74.67 L 90.50 75.73 L 91.56 77.11 L 92.22 78.69 L 92.48 80.52 L 92.28 82.21 M 106.75 74.40 L 106.48 72.80 L 105.66 71.07 L 104.43 69.61 L 102.75 68.38 L 102.68 68.33 L 102.65 68.30 L 101.13 67.55 L 99.38 66.97 L 97.72 66.64 L 95.93 66.45 L 95.28 66.42 L 92.82 66.50 L 90.23 66.88 L 87.51 67.58 L 84.78 68.61 L 82.36 69.87 L 80.16 71.37 L 78.33 73.00 L 76.59 75.07 L 75.40 77.19 L 74.81 79.09 L 74.68 80.93 L 74.73 81.73 L 74.98 82.81 L 75.05 83.03 L 75.11 83.11 L 75.81 84.54 L 76.81 85.80 L 78.16 86.90 L 80.11 87.95 L 82.41 88.70 L 85.13 89.12 L 87.89 89.15 L 90.82 88.80 L 93.96 88.03 L 93.98 88.03 L 97.51 86.60 L 100.33 84.94 L 102.62 83.11 L 104.43 81.13 L 105.84 78.87 L 106.60 76.69 L 106.78 74.53 L 106.78 74.45 L 106.75 74.40" fill="#ff714d" fill-rule="evenodd" group-id="1,2" id="Fill-467" node-id="48" stroke="none" target-height="22.730003" target-width="32.1" target-x="74.68" target-y="66.42"></path><path d="M 92.48 80.52 L 92.28 82.21 L 91.70 83.68 L 90.80 84.97 L 89.80 85.93 L 88.59 86.67 L 87.24 87.13 L 85.76 87.30 L 84.01 87.06 L 82.49 86.45 L 81.16 85.47 L 80.09 84.19 L 79.39 82.72 L 79.03 81.00 L 79.00 80.52 L 79.15 79.12 L 79.56 77.82 L 80.22 76.64 L 81.08 75.63 L 82.43 74.62 L 83.97 73.99 L 85.76 73.75 L 87.57 74.01 L 89.14 74.67 L 90.50 75.73 L 91.56 77.11 L 92.22 78.69 L 92.48 80.52" fill="#fbc2a7" fill-rule="evenodd" group-id="1,2" id="Fill-469" node-id="49" stroke="none" target-height="13.550003" target-width="13.480003" target-x="79" target-y="73.75"></path><path d="M 121.65 71.27 L 120.09 72.37 L 118.38 73.30 L 116.05 74.24 L 113.56 74.81 L 110.88 75.03 L 108.77 74.90 L 106.78 74.53 L 106.78 74.45 L 106.75 74.40 L 106.48 72.80 L 105.66 71.07 L 104.43 69.61 L 102.75 68.38 L 102.68 68.33 L 102.65 68.30 L 101.13 67.55 L 99.38 66.97 L 97.72 66.64 L 95.93 66.45 L 95.48 65.64 L 95.23 65.12 L 94.39 63.08 L 93.83 60.93 L 93.56 58.64 L 93.63 58.64 L 93.56 58.54 L 93.50 57.59 L 93.83 54.28 L 94.69 51.25 L 96.08 48.45 L 100.38 52.29 L 105.28 56.64 L 120.46 70.19 L 121.65 71.27 Z" fill="#da4a37" fill-rule="evenodd" group-id="1,2" id="Fill-471" node-id="50" stroke="none" target-height="26.579998" target-width="28.150002" target-x="93.5" target-y="48.45"></path><path d="M 126.65 72.42 L 125.80 74.30 L 124.21 76.57 L 122.26 78.78 L 119.87 81.09 L 117.32 83.29 L 114.72 85.31 L 112.11 87.15 L 109.85 88.55 L 107.71 89.66 L 106.36 90.14 L 104.50 90.40 L 102.78 90.45 L 99.88 90.16 L 102.45 88.14 L 104.48 85.79 L 106.04 83.14 L 106.96 80.35 L 107.22 78.42 L 107.16 76.49 L 106.78 74.53 L 108.77 74.90 L 110.88 75.03 L 113.56 74.81 L 116.05 74.24 L 118.38 73.30 L 120.09 72.37 L 121.65 71.27 L 120.46 70.19 L 105.28 56.64 L 107.95 55.79 L 110.40 54.78 L 112.45 53.68 L 114.25 52.47 L 115.91 51.14 L 117.33 49.81 L 120.07 52.73 L 123.13 56.61 L 124.98 59.55 L 126.14 61.86 L 126.91 64.24 L 127.35 66.72 L 127.28 69.43 L 126.65 72.42" fill="#409d4d" fill-rule="evenodd" group-id="1,2" id="Fill-473" node-id="51" stroke="none" target-height="40.639996" target-width="27.470001" target-x="99.88" target-y="49.81"></path><path d="M 127.76 19.29 L 127.44 20.95 L 126.20 25.17 L 125.43 27.14 L 124.39 29.36 L 123.13 31.58 L 121.56 33.90 L 119.67 36.23 L 117.37 38.45 L 114.61 40.55 L 112.33 41.93 L 109.73 43.13 L 106.78 44.14 L 106.75 44.14 L 105.50 44.49 L 103.61 44.88 L 98.36 45.49 L 94.72 45.64 L 90.15 45.52 L 85.34 45.04 L 79.86 44.01 L 79.86 43.16 L 80.49 41.35 L 82.41 36.94 L 83.83 34.29 L 85.63 31.49 L 87.10 29.56 L 88.74 27.76 L 90.55 26.17 L 92.50 24.87 L 92.53 24.84 L 94.28 24.04 L 96.82 23.30 L 99.63 22.79 L 102.76 22.52 L 112.33 22.36 L 117.86 22.16 L 120.48 21.89 L 122.83 21.45 L 125.55 20.56 L 127.76 19.29" fill="#389d4d" fill-rule="evenodd" group-id="1,2" id="Fill-475" node-id="52" stroke="none" target-height="26.349998" target-width="47.9" target-x="79.86" target-y="19.29"></path><path d="M 63.48 91.06 L 62.31 90.83 L 61.37 90.19 L 60.74 89.25 L 60.51 88.08 L 60.74 86.90 L 61.37 85.96 L 62.31 85.33 L 63.48 85.09 L 64.65 85.33 L 65.59 85.96 L 66.22 86.90 L 66.45 88.08 L 66.22 89.25 L 65.59 90.19 L 64.65 90.83 L 63.48 91.06 M 53.18 83.36 L 52.33 83.19 L 51.64 82.72 L 51.18 82.04 L 51.01 81.20 L 51.18 80.35 L 51.64 79.67 L 52.33 79.21 L 53.18 79.04 L 54.02 79.21 L 54.70 79.67 L 55.16 80.35 L 55.33 81.20 L 55.16 82.04 L 54.70 82.72 L 54.02 83.19 L 53.18 83.36 M 43.18 74.30 L 42.01 74.06 L 41.07 73.43 L 40.44 72.49 L 40.20 71.31 L 40.44 70.14 L 41.07 69.20 L 42.01 68.57 L 43.18 68.33 L 44.35 68.57 L 45.29 69.20 L 45.92 70.14 L 46.16 71.31 L 45.92 72.49 L 45.29 73.43 L 44.35 74.06 L 43.18 74.30 M 41.60 84.39 L 40.50 84.16 L 39.61 83.55 L 39.01 82.66 L 38.78 81.55 L 39.01 80.45 L 39.61 79.55 L 40.50 78.94 L 41.60 78.72 L 42.71 78.94 L 43.60 79.55 L 44.20 80.45 L 44.43 81.55 L 44.20 82.66 L 43.60 83.55 L 42.71 84.16 L 41.60 84.39 M 31.65 78.49 L 30.93 78.18 L 30.63 77.46 L 30.93 76.73 L 31.65 76.43 L 32.37 76.73 L 32.68 77.46 L 32.37 78.18 L 31.65 78.49 M 77.38 88.13 L 76.46 88.76 L 75.33 88.98 L 74.16 88.74 L 73.22 88.11 L 72.59 87.17 L 72.36 85.99 L 72.55 84.92 L 73.09 84.02 L 73.89 83.37 L 74.91 83.03 L 75.06 83.03 L 74.98 82.81 L 74.73 81.73 L 74.68 80.93 L 74.81 79.09 L 75.41 77.19 L 75.20 76.86 L 74.46 75.46 L 73.88 73.92 L 73.48 72.26 L 73.28 70.61 L 71.15 70.52 L 68.44 70.09 L 65.76 69.22 L 63.16 67.70 L 60.60 65.95 L 58.33 64.78 L 56.29 64.11 L 54.16 63.76 L 51.99 63.73 L 49.76 64.01 L 47.64 64.25 L 45.52 64.28 L 41.80 64.01 L 39.83 65.99 L 37.63 67.66 L 35.16 69.03 L 32.52 70.04 L 29.72 70.66 L 26.73 70.89 L 23.82 70.68 L 21.07 70.08 L 18.45 69.10 L 16.03 67.78 L 18.37 71.70 L 21.16 75.39 L 24.42 78.88 L 28.18 82.17 L 32.19 85.06 L 36.56 87.65 L 41.30 89.92 L 46.45 91.89 L 51.68 93.40 L 57.16 94.51 L 62.90 95.20 L 68.93 95.46 L 75.25 95.18 L 81.27 94.41 L 87.00 93.17 L 84.15 92.55 L 81.57 91.50 L 79.28 90.00 L 77.38 88.13" fill="#fdd609" fill-rule="evenodd" group-id="1,2" id="Fill-477" node-id="53" stroke="none" target-height="31.73" target-width="70.97" target-x="16.03" target-y="63.73"></path><path d="M 32.68 77.46 L 32.37 78.18 L 31.65 78.49 L 30.93 78.18 L 30.63 77.46 L 30.93 76.73 L 31.65 76.43 L 32.37 76.73 L 32.68 77.46" fill="#ffe063" fill-rule="evenodd" group-id="1,2" id="Fill-479" node-id="54" stroke="none" target-height="2.0599976" target-width="2.0500011" target-x="30.63" target-y="76.43"></path><path d="M 121.81 44.01 L 120.19 46.48 L 118.97 48.03 L 117.33 49.81 L 115.91 51.14 L 114.25 52.47 L 112.45 53.68 L 110.40 54.78 L 107.95 55.79 L 105.28 56.63 L 100.38 52.29 L 96.08 48.45 L 97.13 46.91 L 98.36 45.49 L 103.61 44.88 L 105.50 44.49 L 106.75 44.14 L 106.78 44.14 L 109.26 44.45 L 114.05 44.46 L 118.68 44.05 L 121.21 43.59 L 121.81 44.01" fill="#7a3a7f" fill-rule="evenodd" group-id="1,2" id="Fill-481" node-id="55" stroke="none" target-height="13.040001" target-width="25.729996" target-x="96.08" target-y="43.59"></path><path d="M 96.08 48.45 L 94.69 51.25 L 93.83 54.28 L 93.50 57.59 L 93.56 58.54 L 91.49 57.43 L 89.27 56.69 L 86.95 56.37 L 84.56 56.48 L 84.36 56.51 L 80.87 55.15 L 77.39 53.75 L 74.75 52.59 L 73.03 51.74 L 71.15 50.86 L 69.23 50.24 L 66.61 49.86 L 62.48 49.88 L 61.08 50.06 L 60.23 49.81 L 58.39 49.06 L 57.41 48.48 L 56.60 47.78 L 55.98 46.80 L 55.77 45.68 L 55.80 44.63 L 56.01 42.61 L 55.92 41.67 L 55.51 40.72 L 54.41 39.58 L 53.23 38.89 L 54.67 36.52 L 55.74 33.92 L 56.40 31.16 L 56.63 28.23 L 56.55 27.02 L 60.09 26.71 L 64.75 26.75 L 63.15 29.45 L 61.79 32.32 L 60.67 35.21 L 59.89 37.69 L 59.34 39.96 L 59.18 41.20 L 59.38 42.00 L 59.99 42.67 L 61.18 43.26 L 63.37 43.71 L 66.65 43.76 L 68.80 43.57 L 71.28 43.18 L 73.99 42.34 L 76.90 40.88 L 79.71 39.04 L 82.41 36.94 L 80.49 41.35 L 79.86 43.16 L 79.86 44.01 L 85.34 45.04 L 90.15 45.52 L 94.72 45.64 L 98.36 45.49 L 97.13 46.91 L 96.08 48.45" fill="#7a3a7f" fill-rule="evenodd" group-id="1,2" id="Fill-483" node-id="56" stroke="none" target-height="31.830002" target-width="45.13" target-x="53.23" target-y="26.71"></path><path d="M 122.21 43.26 L 121.81 44.01 L 121.21 43.59 L 122.21 43.26" fill="#7a3a7f" fill-rule="evenodd" group-id="1,2" id="Fill-485" node-id="57" stroke="none" target-height="0.75" target-width="1" target-x="121.21" target-y="43.26"></path><path d="M 99.81 13.87 L 98.80 15.74 L 97.28 17.71 L 96.12 19.11 L 94.88 20.91 L 92.53 24.84 L 92.51 24.87 L 90.55 26.17 L 88.74 27.76 L 87.10 29.56 L 85.63 31.49 L 83.83 34.29 L 82.41 36.94 L 79.71 39.04 L 76.90 40.88 L 73.99 42.34 L 71.28 43.18 L 68.81 43.57 L 66.65 43.76 L 63.37 43.71 L 61.18 43.26 L 59.99 42.67 L 59.38 42.00 L 59.18 41.20 L 59.34 39.96 L 59.89 37.69 L 60.67 35.22 L 61.79 32.32 L 63.15 29.45 L 64.75 26.75 L 66.73 24.26 L 72.10 19.17 L 75.52 16.30 L 79.28 13.46 L 83.18 10.92 L 86.85 9.03 L 88.62 8.33 L 90.21 7.88 L 93.49 7.32 L 95.64 7.23 L 97.47 7.42 L 98.47 7.71 L 99.45 8.30 L 99.51 8.35 L 100.01 8.59 L 100.37 9.00 L 100.68 9.98 L 100.55 11.67 L 99.81 13.87" fill="#89d74f" fill-rule="evenodd" group-id="1,2" id="Fill-487" node-id="58" stroke="none" target-height="36.53" target-width="41.5" target-x="59.18" target-y="7.23"></path><path d="M 83.10 48.77 L 83.06 49.89 L 83.36 52.61 L 83.82 54.24 L 84.62 55.97 L 85.77 57.56 L 87.45 59.01" fill="none" group-id="1,2" id="Stroke-489" node-id="59" stroke="#ffffff" stroke-linecap="round" stroke-width="0.5" target-height="10.239998" target-width="4.3899994" target-x="83.06" target-y="48.77"></path><path d="M 78.17 50.83 L 77.05 51.05 L 74.44 51.95 L 72.95 52.74 L 71.46 53.87 L 70.21 55.29 L 69.25 57.15" fill="none" group-id="1,2" id="Stroke-491" node-id="60" stroke="#ffffff" stroke-linecap="round" stroke-width="0.5" target-height="6.3199997" target-width="8.919998" target-x="69.25" target-y="50.83"></path><path d="M 73.56 49.33 L 71.98 48.61 L 70.54 47.70 L 68.85 46.20 L 67.89 45.00 L 67.13 43.51 L 66.57 41.69" fill="none" group-id="1,2" id="Stroke-493" node-id="61" stroke="#ffffff" stroke-linecap="round" stroke-width="0.5" target-height="7.640003" target-width="6.989998" target-x="66.57" target-y="41.69"></path><path d="M 65.07 46.64 L 63.28 46.61 L 61.49 46.84 L 59.11 47.54 L 57.57 48.26 L 56.01 49.36 L 54.41 50.89" fill="none" group-id="1,2" id="Stroke-495" node-id="62" stroke="#ffffff" stroke-linecap="round" stroke-width="0.5" target-height="4.279999" target-width="10.66" target-x="54.41" target-y="46.61"></path><path d="M 50.11 54.09 L 50.79 54.81 L 51.70 55.43 L 53.45 56.20 L 55.60 56.75 L 58.96 57.09" fill="none" group-id="1,2" id="Stroke-497" node-id="63" stroke="#ffffff" stroke-linecap="round" stroke-width="0.5" target-height="3" target-width="8.849998" target-x="50.11" target-y="54.09"></path><path d="M 61.52 52.77 L 62.00 53.98 L 62.30 55.29 L 62.43 57.28 L 62.19 59.44 L 61.33 62.16" fill="none" group-id="1,2" id="Stroke-499" node-id="64" stroke="#ffffff" stroke-linecap="round" stroke-width="0.5" target-height="9.389999" target-width="1.0999985" target-x="61.33" target-y="52.77"></path><path d="M 77.62 30.36 L 79.15 28.22 L 83.34 23.03 L 86.18 19.92 L 89.58 16.58 L 93.28 13.46 L 97.27 10.70 L 100.09 9.15 L 102.92 7.99 L 105.79 7.20" fill="none" group-id="1,2" id="Stroke-501" node-id="65" stroke="#78ba40" stroke-linecap="round" stroke-width="0.5" target-height="23.16" target-width="28.169998" target-x="77.62" target-y="7.2"></path><path d="M 110.52 32.82 L 107.52 33.47 L 99.70 35.59 L 94.70 37.25 L 88.83 39.51 L 82.87 42.19 L 76.66 45.50 L 72.62 48.01 L 68.72 50.80 L 64.95 53.89" fill="none" group-id="1,2" id="Stroke-503" node-id="66" stroke="#78ba40" stroke-linecap="round" stroke-width="0.5" target-height="21.07" target-width="45.57" target-x="64.95" target-y="32.82"></path><path d="M 75.52 117.74 L 74.05 116.59 L 72.54 115.75 L 70.96 115.20 L 68.40 114.72 L 65.35 114.52 L 58.13 114.26 L 53.91 113.86 L 48.72 112.97 L 43.26 111.56 L 36.54 109.21 L 32.21 107.26 L 28.30 105.13 L 24.78 102.82 L 19.90 98.98 L 15.88 95.15 L 12.35 91.17 L 9.67 87.65 L 12.81 93.90 L 16.33 99.69 L 20.22 105.05 L 24.54 110.06 L 29.15 114.54 L 34.06 118.51 L 39.31 122.00 L 44.78 124.89 L 50.50 127.20 L 54.92 128.54 L 59.44 129.49 L 64.08 130.08 L 68.84 130.29 L 70.37 130.26 L 72.91 128.72 L 75.08 126.84 L 76.28 125.38 L 77.06 123.91 L 77.46 122.40 L 77.42 120.90 L 76.82 119.37 L 75.52 117.74" fill="#e6ecf8" fill-rule="evenodd" group-id="1,2" id="Fill-505" node-id="67" stroke="none" target-height="42.63999" target-width="67.79" target-x="9.67" target-y="87.65"></path></g></g></svg>